<svg width="885" height="806" viewBox="0 0 885 806" fill="none" xmlns="http://www.w3.org/2000/svg">
<g id="girl" clip-path="url(#clip0_1:2)">
<g id="clouds">
<path id="Vector" d="M384.858 168.739C421.817 178.461 462.769 184.374 504.408 185.994C510.511 186.326 516.628 186.284 522.725 185.869C536.124 184.742 547.602 180.531 560.384 178.229C566.529 177.126 573.374 176.319 579.561 175.127C578.131 173.353 576.676 171.602 575.195 169.872C561.855 170.999 548.308 174.688 534.807 176.402C511.858 179.321 486.145 176.064 468.748 168.033C460.307 164.136 453.842 159.272 445.431 155.357C444.287 154.77 443.047 154.39 441.771 154.236C439.346 154.163 436.95 154.785 434.867 156.027C420.755 163.151 400.268 168.94 381.251 165.755C379.834 166.864 382.527 168.128 384.858 168.739Z" fill="white"/>
<path id="Vector_2" d="M392.012 257.727C391.775 257.684 391.536 257.65 391.298 257.609C392.299 256.989 393.24 256.28 394.112 255.489L392.012 257.727Z" fill="white"/>
<path id="Vector_3" d="M236.183 276.966C247.055 277.835 257.984 278.482 268.97 278.907C277.323 279.358 285.696 279.301 294.043 278.736C312.385 277.186 328.096 271.429 345.593 268.278C361.629 265.396 381.116 264.008 391.298 257.609C364.983 253.054 337.717 262.327 310.582 265.778C288.633 268.477 266.383 267.378 244.806 262.53C241.802 267.255 238.927 272.068 236.183 276.966Z" fill="white"/>
</g>
<g id="sky">
<path id="Vector_4" d="M617.072 125.842C629.18 125.842 638.995 114.411 638.995 100.31C638.995 86.2091 629.18 74.7779 617.072 74.7779C604.965 74.7779 595.15 86.2091 595.15 100.31C595.15 114.411 604.965 125.842 617.072 125.842Z" fill="white"/>
<path id="Vector_5" d="M562.672 108.821C563.568 108.821 564.295 107.974 564.295 106.93C564.295 105.885 563.568 105.038 562.672 105.038C561.775 105.038 561.048 105.885 561.048 106.93C561.048 107.974 561.775 108.821 562.672 108.821Z" fill="white"/>
<path id="Vector_6" d="M464.005 111.166C464.902 111.166 465.629 110.32 465.629 109.275C465.629 108.231 464.902 107.384 464.005 107.384C463.108 107.384 462.381 108.231 462.381 109.275C462.381 110.32 463.108 111.166 464.005 111.166Z" fill="white"/>
<path id="Vector_7" d="M403.109 113.058C404.006 113.058 404.733 112.211 404.733 111.166C404.733 110.122 404.006 109.275 403.109 109.275C402.212 109.275 401.485 110.122 401.485 111.166C401.485 112.211 402.212 113.058 403.109 113.058Z" fill="white"/>
<path id="Vector_8" d="M317.462 352.317C318.359 352.317 319.086 351.59 319.086 350.693C319.086 349.796 318.359 349.069 317.462 349.069C316.566 349.069 315.839 349.796 315.839 350.693C315.839 351.59 316.566 352.317 317.462 352.317Z" fill="white"/>
<path id="Vector_9" d="M416.1 260.957C416.997 260.957 417.724 260.23 417.724 259.333C417.724 258.436 416.997 257.709 416.1 257.709C415.203 257.709 414.476 258.436 414.476 259.333C414.476 260.23 415.203 260.957 416.1 260.957Z" fill="white"/>
<path id="Vector_10" d="M497.716 344.198C498.612 344.198 499.339 343.471 499.339 342.574C499.339 341.677 498.612 340.95 497.716 340.95C496.819 340.95 496.092 341.677 496.092 342.574C496.092 343.471 496.819 344.198 497.716 344.198Z" fill="white"/>
<path id="Vector_11" d="M511.519 258.943C512.416 258.943 513.143 258.216 513.143 257.319C513.143 256.422 512.416 255.695 511.519 255.695C510.622 255.695 509.895 256.422 509.895 257.319C509.895 258.216 510.622 258.943 511.519 258.943Z" fill="white"/>
<path id="Vector_12" d="M620.32 241.892C621.217 241.892 621.944 241.165 621.944 240.268C621.944 239.371 621.217 238.644 620.32 238.644C619.423 238.644 618.696 239.371 618.696 240.268C618.696 241.165 619.423 241.892 620.32 241.892Z" fill="white"/>
</g>
<g id="window">
<path id="Vector_13" d="M873.473 639.453C861.163 659.783 843.693 695.913 823.353 725.603C806.243 750.573 787.103 770.993 767.273 773.603C680.323 785.063 555.223 788.143 468.273 799.603C364.613 813.263 262.273 798.373 158.273 787.603C132.053 784.883 128.323 742.233 107.813 725.603C106.159 724.249 104.366 723.076 102.463 722.103C77.0629 709.173 55.0929 687.163 47.9729 659.563C38.8429 624.183 55.0429 587.453 73.6629 556.013C92.2729 524.573 114.303 493.233 118.243 456.913C123.093 412.263 99.5529 369.633 73.3928 333.133C47.2428 296.623 16.9429 261.293 4.91285 218.033C-16.0872 142.543 32.4928 54.7331 107.603 32.4231C107.603 32.4231 439.063 34.5231 612.263 7.19315C653.913 0.623146 698.573 -6.71686 736.673 11.3831C780.143 32.0331 803.463 81.6732 807.653 129.623C811.843 177.573 800.473 225.303 792.393 272.753C784.313 320.193 779.723 370.293 796.683 415.343C811.333 454.233 840.623 485.573 861.693 521.403C882.763 557.233 895.013 603.903 873.473 639.453Z" fill="#2F2E41"/>
<path id="Vector_14" d="M823.353 725.603C806.243 750.573 787.103 770.993 767.273 773.603C680.323 785.063 555.223 788.143 468.273 799.603C364.613 813.263 262.273 798.373 158.273 787.603C132.053 784.883 128.323 742.233 107.813 725.603H823.353Z" fill="#3F3D56"/>
<path id="Vector_15" d="M217.186 84.9246L197.7 612.44V612.449C198.357 613.357 199.023 614.265 199.697 615.173C200.062 615.674 200.436 616.166 200.818 616.667C201.378 617.433 201.954 618.189 202.539 618.946C202.547 618.955 202.547 618.965 202.555 618.974L202.579 619.002V619.012C219.67 641.572 239.446 661.965 261.47 679.741V679.949L261.698 679.92C261.966 680.147 262.234 680.356 262.501 680.573C264.442 682.124 266.399 683.656 268.372 685.15C269.338 685.887 270.307 686.616 271.279 687.334V687.344C271.287 687.344 271.287 687.344 271.295 687.353H271.311L271.327 687.372L271.376 687.4C271.4 687.419 271.417 687.429 271.441 687.448C272.188 688.006 272.927 688.554 273.682 689.103C273.909 689.282 274.137 689.443 274.364 689.604C274.762 689.897 275.168 690.19 275.574 690.483C275.972 690.767 276.378 691.06 276.784 691.344C278.4 692.497 280.031 693.632 281.664 694.748C282.07 695.032 282.484 695.306 282.898 695.59C283.304 695.864 283.718 696.138 284.132 696.413V696.441L284.181 696.45L284.197 696.46L284.213 696.479H284.221C285.358 697.235 286.486 697.992 287.631 698.729L287.639 698.739C288.557 699.334 289.474 699.921 290.4 700.507C292.592 701.897 294.801 703.268 297.018 704.602C298.56 705.538 300.111 706.446 301.67 707.344C302.612 707.892 303.562 708.432 304.512 708.97C305.299 709.415 306.095 709.859 306.883 710.294C307.102 710.417 307.313 710.54 307.532 710.654C307.89 710.852 308.255 711.051 308.612 711.24H583.863C584.253 711.032 584.643 710.824 585.033 710.606C585.109 710.58 585.18 710.542 585.244 710.493C585.252 710.493 585.252 710.483 585.26 710.483C585.82 710.181 586.381 709.869 586.941 709.557L586.957 709.547C589.823 707.949 592.665 706.301 595.483 704.602C601.873 700.762 608.149 696.674 614.312 692.337C617.616 690.01 620.886 687.615 624.12 685.15C625.127 684.384 626.134 683.608 627.14 682.824C628.05 682.114 628.951 681.405 629.852 680.686C633.035 678.152 636.177 675.552 639.279 672.885C642.486 670.133 645.648 667.312 648.763 664.421C652.822 660.658 656.801 656.787 660.698 652.809C667.965 645.414 674.935 637.647 681.606 629.509C681.817 629.253 682.028 628.998 682.239 628.733C683.871 626.738 685.482 624.717 687.071 622.672L670.832 84.9245C670.847 81.6586 670.249 78.419 669.07 75.3734C666.601 69.1324 661.786 64.8864 656.257 64.8864H231.761C226.159 64.8864 221.295 69.2365 218.859 75.6098C218.778 75.8181 218.705 76.0261 218.632 76.2341C217.664 79.0288 217.175 81.967 217.186 84.9246Z" fill="#3F3D56"/>
<path id="Vector_16" d="M217.186 84.9225L197.699 612.439V612.447C198.357 613.357 199.023 614.266 199.696 615.175C199.859 615.403 200.029 615.622 200.2 615.849C200.403 616.117 200.606 616.393 200.817 616.669C201.377 617.432 201.954 618.188 202.538 618.943L222.025 84.9225C222.025 84.6708 222.033 84.4272 222.041 84.1754C222.269 78.5001 225.07 73.7745 228.87 72.1506C229.781 71.7503 230.765 71.5429 231.76 71.5416H656.256C660.414 71.5416 663.97 75.1385 665.366 80.1888C665.376 80.2121 665.381 80.2368 665.383 80.2619C665.796 81.7808 666.004 83.3483 666 84.9225L682.239 640.394C682.905 639.696 683.562 638.998 684.22 638.291C685.178 637.268 686.128 636.229 687.07 635.19L670.831 84.9225C670.846 81.6575 670.248 78.4187 669.069 75.3739C666.601 69.1301 661.786 64.8836 656.256 64.8836H231.76C226.158 64.8836 221.294 69.2356 218.858 75.6095C218.777 75.8204 218.704 76.0234 218.631 76.2347C217.663 79.0285 217.175 81.9658 217.186 84.9225ZM297.017 705.537C298.56 706.341 300.11 707.121 301.669 707.892C302.611 708.363 303.561 708.826 304.511 709.288C305.299 709.67 306.095 710.052 306.882 710.425C307.101 710.531 307.312 710.636 307.532 710.734C307.889 710.904 308.254 711.075 308.612 711.237H583.863C584.253 711.058 584.642 710.88 585.032 710.693C585.107 710.671 585.178 710.638 585.243 710.596C585.251 710.596 585.251 710.588 585.259 710.588C585.82 710.328 586.38 710.06 586.94 709.792L586.956 709.784C589.823 708.411 592.664 706.996 595.482 705.537H297.017Z" fill="#2F2E41"/>
<path id="Vector_17" d="M668.416 132.85H219.608V138.485H668.416V132.85Z" fill="#2F2E41"/>
<path id="Vector_18" d="M672.991 202.678H213.427V208.313H672.991V202.678Z" fill="#2F2E41"/>
<path id="Vector_19" d="M598.56 312.025H603.399L587.16 67.414H582.321L598.56 312.025Z" fill="#2F2E41"/>
<path id="Vector_20" d="M281.377 313.649H286.216L305.703 67.414H300.864L281.377 313.649Z" fill="#2F2E41"/>
<path id="Vector_21" d="M210.991 321.557L672.179 321.557V305.429L210.991 305.429V321.557Z" fill="#2F2E41"/>
<path id="Vector_22" d="M449.623 305.401H427.044C427.044 303.049 427.979 300.793 429.642 299.129C431.306 297.466 433.562 296.531 435.915 296.531H440.753C443.106 296.531 445.362 297.466 447.025 299.129C448.689 300.793 449.623 303.049 449.623 305.401Z" fill="#2F2E41"/>
<path id="Vector_23" d="M200.143 629.262C200.362 629.522 200.59 629.774 200.817 630.034C201.377 630.692 201.954 631.341 202.538 631.991C202.546 631.999 202.546 632.007 202.554 632.015L202.579 632.039V632.048C220.034 651.74 239.808 669.249 261.47 684.191C261.542 684.247 261.618 684.299 261.697 684.345C261.965 684.54 262.233 684.719 262.501 684.906C264.441 686.237 266.398 687.552 268.371 688.835C269.337 689.469 270.304 690.094 271.278 690.711V690.719C271.286 690.719 271.286 690.719 271.294 690.727H271.31L271.327 690.743L271.375 690.768C271.4 690.784 271.416 690.792 271.44 690.808C272.187 691.288 272.926 691.758 273.681 692.229C273.909 692.384 274.136 692.522 274.363 692.66C274.761 692.911 275.167 693.163 275.573 693.415C275.971 693.658 276.377 693.91 276.783 694.154C277.295 694.462 277.806 694.779 278.318 695.079L278.285 692.4L278.236 688.835L278.001 672.45L277.189 659.362L272.374 581.893L271.611 569.633L271.44 566.872L269.272 532.015L268.534 520.047L266.853 493.09L266.098 480.83L276.359 467.983L276.326 467.521L276.261 466.416L276.221 465.742V465.734L275.36 451.98L275.328 451.395L274.719 441.668V441.652L273.85 427.556L273.298 418.706L272.681 408.768L272.185 400.803L272.072 398.976L271.771 394.136L271.755 393.942L258.888 364.818L258.4 356.967V356.958L257.889 348.725L257.54 343.09L256.817 331.577L256.054 319.333L255.753 314.494L254.69 297.313V297.305L254.097 287.74L253.504 278.159L252.627 264.144L252.051 254.807L251.702 249.172L249.168 208.315L249.055 206.545L248.811 202.68L247.991 189.461L265.602 159.24L264.311 138.487L263.962 132.852L260.26 73.3198L260.146 71.5416L259.943 68.2126C244.045 66.4669 231.078 67.7497 222.041 75.9667L221.79 132.852L221.765 138.487L216.626 200.772L216.617 202.68L216.593 208.315L214.506 314.494L214.482 319.333L210.909 395.136L210.885 399.976L209.034 452.395L208.961 468.521L200.2 615.849L200.143 629.262Z" fill="#CCCCCC"/>
<path id="Vector_24" d="M268.371 688.835C269.337 689.469 270.304 690.094 271.278 690.711V690.719C271.286 690.719 271.286 690.719 271.294 690.727H271.31L271.327 690.743L271.375 690.768C271.4 690.784 271.416 690.792 271.44 690.808C272.187 691.288 272.926 691.758 273.681 692.229C273.909 692.384 274.136 692.522 274.363 692.66C274.761 692.911 275.167 693.163 275.573 693.415C275.971 693.658 276.377 693.91 276.783 694.154C277.295 694.462 277.806 694.779 278.318 695.079C279.43 695.753 280.545 696.419 281.663 697.077C282.069 697.32 282.483 697.556 282.897 697.799C283.303 698.035 283.717 698.27 284.131 698.506V698.53L284.18 698.538L284.196 698.546L284.212 698.563H284.221C285.357 699.212 286.486 699.862 287.631 700.495L287.639 700.503C288.556 701.015 289.474 701.518 290.399 702.021C292.592 703.215 294.798 704.387 297.017 705.537C298.56 706.341 300.11 707.121 301.669 707.892C302.611 708.363 303.561 708.826 304.511 709.288C305.299 709.67 306.095 710.052 306.882 710.425C307.101 710.531 307.312 710.636 307.532 710.734C307.889 710.904 308.254 711.075 308.612 711.237C308.912 711.375 309.204 711.513 309.505 711.651C310.219 711.992 310.942 712.317 311.656 712.642C312.46 713.007 313.256 713.364 314.06 713.722C317.08 715.07 320.133 716.369 323.194 717.619C334.13 722.097 345.306 725.962 356.671 729.197C357.199 729.352 357.734 729.506 358.27 729.652C363.134 731.016 368.033 732.264 372.967 733.395C381.581 735.376 390.275 737.003 399.047 738.275C399.063 738.275 399.087 738.283 399.103 738.283C400.151 738.437 401.206 738.584 402.254 738.73C402.343 738.746 402.441 738.762 402.538 738.77C402.546 738.778 402.554 738.778 402.57 738.77H402.579C403.74 738.925 404.901 739.079 406.07 739.225C406.151 739.241 406.232 739.249 406.314 739.257C407.401 739.387 408.498 739.517 409.594 739.639C410.771 739.769 411.948 739.891 413.134 740.013H413.142C414.945 740.191 416.747 740.362 418.55 740.508C418.582 740.508 418.615 740.516 418.647 740.516C419.362 740.581 420.076 740.63 420.791 740.687H420.799C429.202 741.352 437.685 741.683 446.245 741.677C455.542 741.677 464.744 741.29 473.852 740.516C473.884 740.516 473.917 740.508 473.949 740.508C475.89 740.346 477.827 740.167 479.763 739.972C480.274 739.923 480.778 739.866 481.289 739.818C481.387 739.81 481.484 739.802 481.581 739.785C481.736 739.769 481.89 739.753 482.052 739.737C482.133 739.729 482.223 739.72 482.304 739.704C482.978 739.631 483.652 739.558 484.334 739.477C485.089 739.387 485.852 739.298 486.607 739.201C487.362 739.111 488.126 739.014 488.881 738.908C489.043 738.892 489.214 738.876 489.376 738.843C489.928 738.778 490.48 738.705 491.024 738.624C491.292 738.592 491.552 738.551 491.812 738.511C492.34 738.437 492.859 738.364 493.387 738.283C493.403 738.283 493.428 738.275 493.444 738.275C510.024 735.881 526.392 732.191 542.396 727.241H542.405C543.273 726.973 544.142 726.697 545.011 726.421C545.271 726.348 545.531 726.266 545.79 726.177C548.048 725.454 550.291 724.707 552.522 723.936C555.599 722.881 558.654 721.776 561.688 720.623C562.517 720.306 563.337 719.99 564.165 719.673C565.813 719.024 567.453 718.374 569.085 717.708C571.87 716.572 574.636 715.4 577.383 714.193H577.392V714.185C579.559 713.227 581.719 712.252 583.863 711.237C584.253 711.058 584.642 710.88 585.032 710.693C585.107 710.671 585.178 710.638 585.243 710.596C585.251 710.596 585.251 710.588 585.259 710.588C585.82 710.328 586.38 710.06 586.94 709.792L586.956 709.784C589.823 708.411 592.664 706.996 595.482 705.537C598.973 703.735 602.435 701.867 605.867 699.935C608.708 698.335 611.523 696.692 614.311 695.006C617.616 693.009 620.885 690.952 624.119 688.835L268.371 688.835Z" fill="#2F2E41"/>
<path id="Vector_25" d="M249.153 573.451L246.717 662.703L248.34 662.747L250.776 573.495L249.153 573.451Z" fill="#B3B3B3"/>
<path id="Vector_26" d="M223.982 223.51L221.546 387.462L223.17 387.486L225.606 223.535L223.982 223.51Z" fill="#B3B3B3"/>
<path id="Vector_27" d="M287.631 700.498L291.456 693.531L289.572 692.646L288.07 691.932L281.517 688.838L277.579 686.979L275.955 686.208L274.664 685.599L272.521 688.838L271.441 690.47L271.279 690.714V690.722C271.313 690.735 271.345 690.751 271.376 690.771C271.4 690.787 271.417 690.795 271.441 690.811C272.188 691.29 272.927 691.761 273.682 692.232C273.909 692.387 274.137 692.525 274.364 692.662C274.762 692.914 275.168 693.166 275.574 693.418C275.972 693.661 276.378 693.913 276.784 694.157C278.399 695.147 280.031 696.121 281.663 697.079C282.069 697.323 282.484 697.559 282.898 697.802C283.304 698.038 283.718 698.273 284.132 698.509V698.533L284.181 698.541L284.197 698.549L284.213 698.565H284.221C285.358 699.215 286.486 699.865 287.631 700.498Z" fill="#2F2E41"/>
<path id="Vector_28" d="M217.08 136.238C217.082 134.731 217.681 133.286 218.747 132.221C219.812 131.155 221.257 130.556 222.764 130.554H273.917C275.424 130.554 276.87 131.153 277.936 132.219C279.002 133.285 279.601 134.73 279.601 136.238C279.601 137.745 279.002 139.191 277.936 140.257C276.87 141.323 275.424 141.921 273.917 141.921H222.764C221.257 141.92 219.812 141.32 218.747 140.255C217.681 139.189 217.082 137.745 217.08 136.238Z" fill="#2F2E41"/>
<path id="Vector_29" d="M196.782 190.638C196.783 189.132 197.383 187.687 198.448 186.621C199.514 185.556 200.958 184.957 202.465 184.955H253.618C255.126 184.955 256.571 185.554 257.637 186.62C258.703 187.685 259.302 189.131 259.302 190.638C259.302 192.146 258.703 193.592 257.637 194.657C256.571 195.723 255.126 196.322 253.618 196.322H202.465C200.958 196.32 199.514 195.721 198.448 194.656C197.383 193.59 196.783 192.145 196.782 190.638Z" fill="#2F2E41"/>
<path id="Vector_30" d="M383.322 569.277H404.155V567.734H383.322V569.277Z" fill="white"/>
<path id="Vector_31" d="M383.322 578.793H404.155V577.25H383.322V578.793Z" fill="white"/>
<path id="Vector_32" d="M383.322 588.31H404.155V586.766H383.322V588.31Z" fill="white"/>
<path id="Vector_33" d="M383.322 597.826H404.155V596.283H383.322V597.826Z" fill="white"/>
<path id="Vector_34" d="M383.322 607.342H404.155V605.799H383.322V607.342Z" fill="white"/>
<path id="Vector_35" d="M383.322 616.859H404.155V615.315H383.322V616.859Z" fill="white"/>
<path id="Vector_36" d="M383.322 626.375H404.155V624.832H383.322V626.375Z" fill="white"/>
<path id="Vector_37" d="M383.322 635.891H404.155V634.348H383.322V635.891Z" fill="white"/>
<path id="Vector_38" d="M383.322 645.408H404.155V643.864H383.322V645.408Z" fill="white"/>
<path id="Vector_39" d="M383.322 654.924H404.155V653.381H383.322V654.924Z" fill="white"/>
<path id="Vector_40" d="M383.322 664.44H404.155V662.897H383.322V664.44Z" fill="white"/>
<path id="Vector_41" d="M383.322 673.957H404.155V672.413H383.322V673.957Z" fill="white"/>
<path id="Vector_42" d="M604.787 686.335C612.094 693.642 611.526 696.687 614.311 695.006C617.616 693.009 620.885 690.952 624.12 688.835C625.126 688.178 626.133 687.512 627.14 686.838C628.049 686.229 628.951 685.62 629.852 685.003C633.035 682.827 636.177 680.594 639.279 678.304C642.486 675.941 645.647 673.519 648.762 671.037C652.822 667.806 656.8 664.482 660.698 661.066C667.965 654.717 674.934 648.048 681.606 641.06C681.817 640.841 682.028 640.622 682.239 640.394C682.905 639.696 683.562 638.998 684.22 638.291L680.915 626.356L676.856 452.395L676.612 399.976L676.596 395.136L672.991 319.333L672.966 314.494L670.872 212.293L670.855 208.315L670.823 202.68L682.141 191.678L665.659 138.487L665.634 132.852L665.383 80.262L665.367 75.9667C656.768 68.1394 644.597 66.6049 629.714 67.9852C628.975 68.0583 628.22 68.1315 627.465 68.2125L627.262 71.5416L626.888 77.4768V77.4852L623.965 124.546V124.562L623.445 132.852L623.096 138.487L622.179 153.232L635.349 202.68L635 208.315L632.458 249.172L632.109 254.807L631.386 266.434L628.398 314.494L628.098 319.333L627.481 329.312L626.71 341.653L626.62 343.09L626.271 348.725L617.264 364.916L616.988 369.43L615.714 389.997L615.543 392.741L615.47 393.87L615.389 395.136L615.259 397.247L615.088 399.976L614.479 409.768L614.228 413.876L613.984 417.749L613.814 420.55L613.529 425.065L613.31 428.556L620.742 437.764L620.498 441.637L620.084 448.368L619.832 452.395L619.8 452.882L619.256 461.651L619.012 465.525L618.834 468.521L618.355 476.193L618.07 480.7L617.77 485.531L617.535 489.404L616.625 504.003L616.349 508.517L616.292 509.418L616.049 513.291L614.896 531.82L614.806 533.306L614.62 536.335L614.571 537.179L613.321 557.185L613.166 559.638L613.077 561.059L612.89 564.152L611.835 581.073L611.591 584.946L611.437 587.455L611.161 591.97L610.357 604.961L610.113 608.834L609.716 615.281L609.431 619.787L608.871 628.84L608.628 632.713L607.986 643.09L607.702 647.596L607.523 652.728L607.385 656.601L604.787 686.335Z" fill="#CCCCCC"/>
<path id="Vector_43" d="M606.817 136.238C606.819 134.731 607.418 133.286 608.483 132.221C609.549 131.155 610.994 130.556 612.5 130.554H663.653C665.161 130.554 666.606 131.153 667.672 132.219C668.738 133.285 669.337 134.73 669.337 136.238C669.337 137.745 668.738 139.191 667.672 140.257C666.606 141.323 665.161 141.921 663.653 141.921H612.5C610.994 141.92 609.549 141.32 608.483 140.255C607.418 139.189 606.819 137.745 606.817 136.238Z" fill="#2F2E41"/>
<path id="Vector_44" d="M168.351 70.8758C168.353 69.3689 168.952 67.9243 170.018 66.8588C171.084 65.7932 172.528 65.1939 174.035 65.1921H710.735C712.241 65.1941 713.684 65.7938 714.749 66.8595C715.813 67.9251 716.411 69.3697 716.411 70.8758C716.411 72.3819 715.813 73.8264 714.749 74.8921C713.684 75.9577 712.241 76.5574 710.735 76.5594H174.035C172.528 76.5577 171.084 75.9583 170.018 74.8928C168.952 73.8273 168.353 72.3826 168.351 70.8758Z" fill="#2F2E41"/>
<path id="Vector_45" d="M624.68 193.074C624.681 191.568 625.281 190.123 626.346 189.057C627.412 187.992 628.856 187.392 630.363 187.391H681.516C682.263 187.39 683.003 187.536 683.694 187.821C684.384 188.106 685.011 188.525 685.54 189.053C686.069 189.581 686.488 190.208 686.774 190.898C687.06 191.588 687.207 192.327 687.207 193.074C687.207 193.821 687.06 194.561 686.774 195.251C686.488 195.941 686.069 196.568 685.54 197.096C685.011 197.624 684.384 198.042 683.694 198.328C683.003 198.613 682.263 198.759 681.516 198.758H630.363C628.856 198.756 627.412 198.157 626.346 197.091C625.281 196.026 624.681 194.581 624.68 193.074Z" fill="#2F2E41"/>
<path id="Vector_46" d="M660.811 216.203L658.376 380.154L660 380.178L662.435 216.227L660.811 216.203Z" fill="#B3B3B3"/>
<path id="Vector_47" d="M644.572 404.576L642.137 568.527L643.761 568.551L646.196 404.6L644.572 404.576Z" fill="#B3B3B3"/>
<path id="Vector_48" d="M662.436 543.409L660 632.661L661.623 632.705L664.059 543.453L662.436 543.409Z" fill="#B3B3B3"/>
</g>
<g id="girl_2">
<path id="Vector_49" d="M374.181 452.355L374.917 491.052H328.139L328.136 454.737L374.181 452.355Z" fill="#FFB6B6"/>
<path id="Vector_50" d="M346.038 371.362C360.127 371.362 371.549 359.94 371.549 345.852C371.549 331.763 360.127 320.341 346.038 320.341C331.95 320.341 320.528 331.763 320.528 345.852C320.528 359.94 331.95 371.362 346.038 371.362Z" fill="#FFB6B6"/>
<path id="Vector_51" d="M435.005 312.37C433.609 312.384 432.234 312.703 430.975 313.306C429.716 313.909 428.605 314.781 427.719 315.86C426.834 316.939 426.196 318.198 425.85 319.551C425.504 320.903 425.459 322.314 425.717 323.686L388.817 383.36L402.696 390.096L437.56 331.261C439.836 330.674 441.816 329.273 443.127 327.323C444.438 325.373 444.988 323.009 444.673 320.681C444.358 318.352 443.2 316.22 441.418 314.688C439.636 313.157 437.354 312.332 435.005 312.37Z" fill="#FFB6B6"/>
<path id="Vector_52" d="M372.836 385.492L366.658 397.262L363.358 403.554L361.202 407.656C360.099 409.16 359.314 410.872 358.895 412.689C358.174 415.793 358.545 419.05 359.946 421.912C361.346 424.775 363.691 427.067 366.584 428.402C369.477 429.738 372.742 430.036 375.829 429.245C378.915 428.454 381.635 426.624 383.53 424.062L401.167 406.159C401.668 405.647 402.052 405.033 402.294 404.359C402.537 403.684 402.631 402.966 402.572 402.252C402.513 401.538 402.3 400.846 401.95 400.221C401.599 399.596 401.118 399.054 400.54 398.631L415.923 369.921L398.823 359.16L380.195 383.765C379.614 383.346 378.95 383.057 378.247 382.916C377.544 382.776 376.82 382.788 376.122 382.951C375.424 383.115 374.77 383.427 374.203 383.865C373.636 384.303 373.17 384.858 372.836 385.492V385.492Z" fill="#6C63FF"/>
<path id="Vector_53" d="M317.03 527.078C315.861 526.317 314.872 525.309 314.134 524.124C313.396 522.939 312.926 521.607 312.759 520.222C312.591 518.836 312.729 517.431 313.164 516.104C313.598 514.778 314.318 513.563 315.273 512.545L316.192 442.39L331.518 444.16L329.331 512.515C330.935 514.232 331.854 516.478 331.912 518.827C331.971 521.176 331.166 523.465 329.65 525.26C328.133 527.055 326.011 528.232 323.686 528.567C321.36 528.902 318.992 528.372 317.03 527.078H317.03Z" fill="#FFB6B6"/>
<path id="Vector_54" d="M302.488 753.347H312.933L317.904 713.058H302.488V753.347Z" fill="#FFB6B6"/>
<path id="Vector_55" d="M299.079 746.193L315.767 745.197V752.347L331.632 763.304C332.416 763.845 333.006 764.622 333.316 765.522C333.627 766.423 333.642 767.399 333.358 768.308C333.075 769.217 332.508 770.012 331.741 770.576C330.974 771.14 330.047 771.445 329.094 771.445H309.227L305.803 764.373L304.466 771.445H296.975L299.079 746.193Z" fill="#2F2E41"/>
<path id="Vector_56" d="M401.696 748.258L411.445 744.507L394.995 680.394L378.253 687.323L401.696 748.258Z" fill="#FFB6B6"/>
<path id="Vector_57" d="M395.946 742.805L411.163 735.883L413.73 742.556L432.472 747.086C433.397 747.309 434.227 747.823 434.841 748.552C435.454 749.28 435.818 750.186 435.88 751.136C435.942 752.087 435.698 753.032 435.185 753.834C434.672 754.636 433.915 755.253 433.026 755.595L414.484 762.728L408.749 757.358L410.04 764.438L403.049 767.128L395.946 742.805Z" fill="#2F2E41"/>
<path id="Vector_58" d="M297.982 718.604H298.095L300.104 653.096C298.804 650.589 298.144 647.799 298.183 644.975C298.223 642.15 298.96 639.38 300.329 636.909L300.616 636.389L299.871 632.932C298.913 628.491 299.352 623.862 301.129 619.681L303.003 558.574C296.308 515.184 328.215 486.887 328.215 486.887H376.012L386.273 522.143C393.057 588.235 407.826 616.639 397.061 679.036L397.355 679.185C398.411 679.549 398.865 681.013 398.367 682.454C397.87 683.895 396.61 684.768 395.553 684.403L381.273 701.603C380.216 701.239 371.801 694.697 372.298 693.256C372.796 691.814 374.056 690.942 375.112 691.307L376.829 692.175L349.869 568.399L335.223 640.852L320.263 719.333C320.676 719.707 320.966 720.197 321.094 720.738C321.222 721.28 321.184 721.848 320.983 722.367C320.782 722.886 320.428 723.332 319.968 723.646C319.508 723.96 318.964 724.127 318.408 724.125H297.982C297.249 724.125 296.547 723.834 296.03 723.316C295.512 722.799 295.221 722.097 295.221 721.365C295.221 720.632 295.512 719.93 296.03 719.413C296.547 718.895 297.249 718.604 297.982 718.604Z" fill="#6C63FF"/>
<path id="Vector_59" d="M311.183 328.068C311.408 328.398 311.649 328.717 311.907 329.022C313.208 330.519 314.81 331.726 316.609 332.564L317.116 332.427C317.208 333.385 317.507 334.31 317.994 335.14C318.481 335.969 319.143 336.682 319.935 337.228C320.408 337.515 320.928 337.715 321.471 337.82C319.46 345.919 319.357 352.735 321.161 358.198C321.46 359.126 321.827 360.03 322.26 360.904C322.907 362.227 323.703 363.472 324.632 364.615C324.792 364.812 324.957 365.005 325.126 365.197C325.798 365.961 326.53 366.671 327.315 367.321C328.993 368.709 330.859 369.854 332.858 370.722C336.377 372.211 340.115 373.117 343.925 373.404H343.93C346.806 373.668 349.701 373.646 352.573 373.338L353.071 373.272L353.076 373.16L353.095 372.774C353.099 372.68 353.104 372.582 353.113 372.488C353.146 371.858 353.208 371.229 353.292 370.609C353.367 369.998 353.466 369.392 353.583 368.796C353.964 369.707 354.476 370.844 355.077 372.126C355.73 373.517 356.491 375.081 357.299 376.701C357.726 377.556 358.168 378.43 358.614 379.309C359.718 381.479 360.846 383.654 361.874 385.603C362.612 386.994 363.293 388.267 363.88 389.333C364.768 390.968 365.43 392.123 365.693 392.499L366.464 393.603L366.985 391.32L367.549 388.859L368.362 385.284L368.705 383.785C368.747 383.588 368.789 383.395 368.831 383.198C369.125 381.75 369.287 380.279 369.315 378.801C369.334 378.228 369.325 377.655 369.292 377.082C369.185 374.921 368.799 372.784 368.146 370.722C367.78 369.556 367.328 368.419 366.793 367.321C366.609 366.926 366.412 366.531 366.201 366.146C365.919 365.629 365.618 365.117 365.304 364.615C365.275 364.572 365.252 364.53 365.224 364.488C364.509 363.363 363.925 362.16 363.481 360.904C363.169 360.023 362.93 359.118 362.767 358.198C362.055 354.223 362.732 350.125 364.684 346.59C365.445 345.192 366.414 343.917 367.558 342.809C368.052 342.331 368.581 341.891 369.142 341.494C369.998 340.874 370.927 340.361 371.908 339.967C373.422 339.351 375.042 339.035 376.676 339.037H377.273V338.44C377.293 335.038 376.182 331.725 374.116 329.022C373.867 328.693 373.6 328.373 373.322 328.068C371.054 325.441 367.854 323.799 364.397 323.488C364.172 321.708 362.908 320.106 360.709 318.837C359.411 318.116 358.025 317.567 356.585 317.203C352.092 316.085 347.394 316.085 342.901 317.203C341.07 317.653 339.299 318.32 337.626 319.19C337.548 318.506 337.374 317.837 337.109 317.203C336.613 316.001 335.813 314.949 334.788 314.149C334.288 313.761 333.73 313.453 333.135 313.238C331.874 312.799 330.516 312.721 329.213 313.012C322.443 307.77 315.848 309.719 312.222 314.149C311.457 315.072 310.829 316.101 310.357 317.203C309.556 318.934 309.212 320.841 309.357 322.743C309.501 324.645 310.13 326.478 311.183 328.068Z" fill="#2F2E41"/>
<path id="Vector_60" d="M340.912 434.012L340.191 420.739L339.803 413.645L339.554 409.017C339.732 407.161 339.529 405.288 338.958 403.513C337.988 400.478 336.001 397.87 333.333 396.129C330.664 394.387 327.477 393.619 324.308 393.953C321.139 394.288 318.182 395.704 315.936 397.964C313.689 400.224 312.29 403.189 311.975 406.36L305.994 430.768C305.826 431.465 305.81 432.189 305.947 432.893C306.084 433.596 306.371 434.261 306.788 434.844C307.204 435.427 307.741 435.913 308.362 436.27C308.983 436.627 309.674 436.847 310.387 436.913L311.877 469.452L332.075 469.937L335.475 439.264C336.188 439.326 336.907 439.235 337.583 438.996C338.258 438.757 338.875 438.375 339.39 437.877C339.906 437.379 340.308 436.777 340.571 436.11C340.833 435.443 340.95 434.728 340.912 434.012Z" fill="#6C63FF"/>
<path id="Vector_61" d="M323.501 340.394C330.939 337.456 338.389 332.136 339.615 323.632C339.986 321.736 339.754 319.772 338.953 318.014C338.204 316.79 337.329 315.648 336.341 314.607C335.959 314.161 335.68 313.637 335.524 313.071C335.367 312.506 335.337 311.912 335.436 311.334C335.529 310.679 335.757 310.051 336.107 309.49C336.457 308.928 336.92 308.446 337.467 308.075C337.567 308.014 337.243 307.834 337.251 308.002C337.265 308.308 337.393 308.638 337.422 308.953C337.513 309.909 337.46 310.874 337.263 311.814C336.858 313.785 335.9 315.6 334.5 317.045C332.261 319.358 335.793 322.898 338.036 320.581C339.642 318.942 340.861 316.964 341.603 314.793C342.344 312.621 342.59 310.311 342.322 308.032C342.016 305.685 340.726 303.429 338.177 303.105C335.598 302.778 333.405 304.571 332.048 306.59C330.816 308.447 330.243 310.665 330.422 312.888C330.65 314.845 331.483 316.682 332.806 318.142C333.173 318.589 333.876 319.353 334.056 319.596C334.381 319.986 334.619 320.44 334.756 320.928C335.096 322.969 334.203 325.268 333.22 327.004C330.846 331.199 326.55 333.843 322.172 335.573C321.543 335.766 321.012 336.192 320.688 336.763C320.363 337.335 320.269 338.009 320.426 338.648C320.606 339.285 321.03 339.825 321.605 340.152C322.181 340.479 322.862 340.566 323.501 340.394V340.394Z" fill="#6C63FF"/>
<path id="Vector_62" d="M381.599 415.068C381.564 414.704 381.512 414.323 381.443 413.959C380.217 405.426 375.695 397.713 368.847 392.476C366.525 390.682 363.979 389.199 361.273 388.064V380.603H336.273V387.766C330.967 389.861 326.265 393.242 322.589 397.604V397.621C322.312 397.95 322.052 398.297 321.792 398.643C321.324 399.233 320.891 399.856 320.476 400.48C316.72 406.154 314.786 412.839 314.931 419.642V419.659C314.986 422.28 315.352 424.886 316.023 427.421C317.177 431.854 318.085 436.348 318.743 440.882C319.193 443.758 319.54 446.582 319.8 449.337C319.956 450.723 320.077 452.091 320.181 453.425V453.443C320.701 460.044 320.874 465.969 321.03 470.56C321.099 473.055 321.169 475.134 321.29 476.728C321.293 476.833 321.304 476.937 321.324 477.04C321.458 478.111 321.917 479.115 322.641 479.916C322.73 480.028 322.829 480.132 322.936 480.227C323.704 480.919 324.633 481.407 325.638 481.648C325.986 481.718 326.34 481.753 326.695 481.752H326.799C338.533 476.285 351.716 474.744 364.394 477.359L372.758 479.084C373.111 479.158 373.476 479.152 373.826 479.067C374.177 478.982 374.504 478.819 374.784 478.592C375.063 478.364 375.289 478.077 375.444 477.751C375.599 477.425 375.679 477.069 375.679 476.709C375.663 471.273 374.584 460.032 375.292 459.455C376.039 458.821 376.606 458.003 376.938 457.081V457.064C376.973 456.925 377.025 456.787 377.059 456.631C378.515 450.896 381.096 444.746 382.014 434.853C382.136 433.432 382.24 431.96 382.292 430.383V430.366C382.444 425.256 382.212 420.143 381.599 415.068Z" fill="#6C63FF"/>
</g>
<g id="buidlings">
<path id="Vector_63" d="M462.647 472.369V464.591C462.648 461.62 463.785 458.761 465.825 456.6C467.865 454.439 470.654 453.14 473.621 452.968V422.593H476.203V452.933H487.823V472.299H542.693V695.009H421.333V516.031C421.333 504.851 425.615 494.097 433.299 485.976C440.983 477.856 451.484 472.987 462.647 472.369Z" fill="#2F2E41"/>
<path id="Vector_64" d="M506.543 516.841H522.682V503.931H506.543V516.841Z" fill="white"/>
<path id="Vector_65" d="M480.076 516.841H496.215V503.931H480.076V516.841Z" fill="white"/>
<path id="Vector_66" d="M453.609 516.841H469.748V503.931H453.609V516.841Z" fill="white"/>
<path id="Vector_67" d="M506.543 549.764H522.682V536.853H506.543V549.764Z" fill="white"/>
<path id="Vector_68" d="M480.076 549.764H496.215V536.853H480.076V549.764Z" fill="white"/>
<path id="Vector_69" d="M453.609 549.764H469.748V536.853H453.609V549.764Z" fill="white"/>
<path id="Vector_70" d="M506.543 582.686H522.682V569.775H506.543V582.686Z" fill="white"/>
<path id="Vector_71" d="M480.076 582.686H496.215V569.775H480.076V582.686Z" fill="white"/>
<path id="Vector_72" d="M453.609 582.686H469.748V569.775H453.609V582.686Z" fill="white"/>
<path id="Vector_73" d="M506.543 615.608H522.682V602.698H506.543V615.608Z" fill="white"/>
<path id="Vector_74" d="M480.076 615.608H496.215V602.698H480.076V615.608Z" fill="white"/>
<path id="Vector_75" d="M453.609 615.608H469.748V602.698H453.609V615.608Z" fill="white"/>
<path id="Vector_76" d="M506.543 648.53H522.682V635.62H506.543V648.53Z" fill="white"/>
<path id="Vector_77" d="M480.076 648.53H496.215V635.62H480.076V648.53Z" fill="white"/>
<path id="Vector_78" d="M453.609 648.53H469.748V635.62H453.609V648.53Z" fill="white"/>
<path id="Vector_79" d="M506.543 681.453H522.682V668.542H506.543V681.453Z" fill="white"/>
<path id="Vector_80" d="M480.076 681.453H496.215V668.542H480.076V681.453Z" fill="white"/>
<path id="Vector_81" d="M453.609 681.453H469.748V668.542H453.609V681.453Z" fill="white"/>
<path id="Vector_82" d="M539.344 407.576V695.006H614.311C617.616 693.009 620.885 690.952 624.12 688.835C625.126 688.178 626.133 687.512 627.14 686.838C628.049 686.229 628.951 685.62 629.852 685.003C633.035 682.827 636.177 680.594 639.279 678.304C642.486 675.942 645.647 673.519 648.762 671.037C652.822 667.806 656.8 664.482 660.698 661.067V363.844H639.076V329.312H617.128V296.387H614.547V329.312H598.445C595.353 329.312 592.388 330.54 590.201 332.727C588.015 334.913 586.786 337.879 586.786 340.971V363.844H583.075C573.646 363.844 564.47 366.891 556.913 372.53C549.356 378.168 543.823 386.098 541.138 395.136C540.671 396.727 540.291 398.343 540.001 399.976C539.564 402.485 539.344 405.028 539.344 407.576Z" fill="#2F2E41"/>
<path id="Vector_83" d="M604.863 349.325H621.001V336.414H604.863V349.325Z" fill="white"/>
<path id="Vector_84" d="M339.005 600.554V597.455C339.005 596.271 339.458 595.132 340.271 594.271C341.084 593.411 342.195 592.893 343.377 592.824V580.722H344.406V592.811H349.035V600.527H370.897V689.26H322.544V617.95C322.544 613.496 324.25 609.211 327.312 605.976C330.373 602.74 334.557 600.8 339.005 600.554Z" fill="#2F2E41"/>
<path id="Vector_85" d="M356.494 618.273H362.924V613.129H356.494V618.273Z" fill="white"/>
<path id="Vector_86" d="M345.949 618.273H352.379V613.129H345.949V618.273Z" fill="white"/>
<path id="Vector_87" d="M335.404 618.273H341.834V613.129H335.404V618.273Z" fill="white"/>
<path id="Vector_88" d="M356.494 631.39H362.924V626.246H356.494V631.39Z" fill="white"/>
<path id="Vector_89" d="M345.949 631.39H352.379V626.246H345.949V631.39Z" fill="white"/>
<path id="Vector_90" d="M335.404 631.39H341.834V626.246H335.404V631.39Z" fill="white"/>
<path id="Vector_91" d="M356.494 644.507H362.924V639.363H356.494V644.507Z" fill="white"/>
<path id="Vector_92" d="M345.949 644.507H352.379V639.363H345.949V644.507Z" fill="white"/>
<path id="Vector_93" d="M335.404 644.507H341.834V639.363H335.404V644.507Z" fill="white"/>
<path id="Vector_94" d="M356.494 657.625H362.924V652.481H356.494V657.625Z" fill="white"/>
<path id="Vector_95" d="M345.949 657.625H352.379V652.481H345.949V657.625Z" fill="white"/>
<path id="Vector_96" d="M335.404 657.625H341.834V652.481H335.404V657.625Z" fill="white"/>
<path id="Vector_97" d="M356.494 670.742H362.924V665.598H356.494V670.742Z" fill="white"/>
<path id="Vector_98" d="M345.949 670.742H352.379V665.598H345.949V670.742Z" fill="white"/>
<path id="Vector_99" d="M335.404 670.742H341.834V665.598H335.404V670.742Z" fill="white"/>
<path id="Vector_100" d="M356.494 683.859H362.924V678.715H356.494V683.859Z" fill="white"/>
<path id="Vector_101" d="M345.949 683.859H352.379V678.715H345.949V683.859Z" fill="white"/>
<path id="Vector_102" d="M335.404 683.859H341.834V678.715H335.404V683.859Z" fill="white"/>
<path id="Vector_103" d="M386.985 557.317H388.466V548.202C388.466 546.97 388.955 545.789 389.826 544.917C390.697 544.046 391.879 543.557 393.11 543.557H399.525V530.44H400.554V543.557H409.299V557.317H417.915V689.26H369.562V574.741C369.562 570.12 371.397 565.688 374.665 562.42C377.932 559.153 382.364 557.317 386.985 557.317Z" fill="#2F2E41"/>
<path id="Vector_104" d="M395.667 551.53H402.097V546.386H395.667V551.53Z" fill="white"/>
<path id="Vector_105" d="M576.598 406.579H592.737V393.668H576.598V406.579Z" fill="white"/>
<path id="Vector_106" d="M576.598 438.579H592.737V425.668H576.598V438.579Z" fill="white"/>
<path id="Vector_107" d="M576.598 470.579H592.737V457.668H576.598V470.579Z" fill="white"/>
<path id="Vector_108" d="M576.598 502.579H592.737V489.668H576.598V502.579Z" fill="white"/>
<path id="Vector_109" d="M576.598 534.579H592.737V521.668H576.598V534.579Z" fill="white"/>
<path id="Vector_110" d="M576.598 566.579H592.737V553.668H576.598V566.579Z" fill="white"/>
<path id="Vector_111" d="M576.598 598.579H592.737V585.668H576.598V598.579Z" fill="white"/>
<path id="Vector_112" d="M576.598 630.579H592.737V617.668H576.598V630.579Z" fill="white"/>
<path id="Vector_113" d="M576.598 662.579H592.737V649.668H576.598V662.579Z" fill="white"/>
</g>
</g>
<defs>
<clipPath id="rest">
<rect width="884.77" height="805.082" fill="white"/>
</clipPath>
</defs>
</svg>
