<svg version="1.1" id="Layer_1" xmlns="http://www.w3.org/2000/svg" x="0" y="0" viewBox="0 0 100 60" style="enable-background:new 0 0 100 60" xml:space="preserve">
  <style>
    .st0{fill:#010101}.st1{fill:#fff;stroke:#000;stroke-miterlimit:10}
  </style>
  <switch>
    <g>
      <g id="skull">
        <path class="st0" d="M52.06 46.55c1.16.22 1.33.2 2.56-.46 2.57-1.37 4.62-3.35 5.16-5 .15-.48.17-.74.12-1.59-.06-1.12.1-2.29.64-4.56l.28-1.15.84-.09c.47-.05 1.04-.18 1.27-.27.77-.34 1.81-1.76 2.18-2.96.18-.61.18-.92 0-1.36-.16-.38-.4-.55-.94-.68-.35-.09-.36-.11-.44-.6-.05-.28-.06-.95-.03-1.48.05-.77.13-1.14.4-1.88 1.94-5.15 1.33-8.54-2.04-11.31-1.93-1.59-4.54-2.7-7.69-3.25-.99-.18-1.61-.23-2.99-.26-.96-.02-2.04 0-2.4.04-5.98.72-10.35 3.31-11.78 7-.71 1.85-.59 4.27.35 6.95.64 1.81.66 1.92.68 3.03.01.59-.02 1.2-.06 1.37-.06.27-.12.32-.54.43-.59.15-.85.44-.91 1.04-.08.89.54 2.3 1.45 3.25.6.63 1.03.82 2.09.94.61.06.85.12.88.21.14.39.76 3.32.86 4.02.07.48.08 1.18.04 1.71-.05.72-.03 1 .11 1.4.61 1.79 2.48 3.6 5.25 5.09.5.27 1.07.51 1.25.55M49.87 47.86c1.09-.22 1.04-.22 2.19.01"/>
        <path class="st1" d="M46.42 25.69c1.43.64 2.01 2.06 1.32 3.24-.69 1.19-2.31 1.83-4.92 1.92-1.21.04-1.36.03-1.76-.13-.53-.22-.73-.49-.88-1.2-.13-.64-.06-1.45.21-2.2.25-.7.88-1.19 1.91-1.51 1.04-.32 1.5-.38 2.63-.36.84.02 1.06.06 1.49.24zM58.57 25.55c.86.15 1.91.55 2.31.88.59.48.87 1.23.87 2.36 0 1.67-.44 2.09-2.22 2.09-1.6 0-2.75-.2-3.8-.67-1.51-.67-2.16-1.81-1.72-3.05.26-.74 1-1.38 1.88-1.62.57-.15 1.8-.14 2.68.01zM51.54 30.5c.51.37 1.92 3.43 1.92 4.15-.01.46-.33.96-.73 1.13-.32.13-.4.13-.71.02-.36-.13-.8-.62-.92-1.02-.09-.31-.16-.28-.36.15-.21.43-.6.81-.95.92-.36.12-.93-.14-1.15-.52-.27-.46-.22-.96.23-2.09.52-1.33 1.19-2.52 1.54-2.75.36-.27.77-.26 1.13.01z"/>
        <path d="M44.02 35.38c.5.25.67.54.77 1.3.05.38.14.86.2 1.05.06.2.14.75.18 1.23.06.88.19 1.19.42.99.06-.05.14-.36.17-.68.05-.59.15-.75.4-.63.11.05.15.27.16.84.01.61.05.81.19.93.16.14.18.14.35 0 .13-.12.17-.3.17-.87 0-.77.12-.96.44-.68.12.1.15.28.12.81-.03.75.13 1.11.48 1.11s.46-.24.46-1c0-.6.03-.72.18-.76.31-.09.59.05.53.26-.13.45-.17 1.13-.07 1.35.2.45 1.24.39 1.37-.08.04-.13.03-.49-.02-.81l-.1-.58.32-.05c.18-.03.42-.03.54.01.2.05.21.09.14.64-.03.32-.04.68 0 .81.08.26.46.41.92.33.44-.07.56-.41.43-1.2-.1-.57-.05-.7.28-.71.34 0 .38.09.35.71-.03.72.11 1.04.48 1.04.39 0 .52-.32.47-1.13-.04-.64-.03-.71.15-.79.11-.05.24-.06.28-.02.05.03.1.38.12.77.02.53.08.74.21.85.16.14.18.14.35 0 .14-.12.17-.3.17-.92 0-.61.03-.78.15-.84.27-.13.37.03.42.61.04.62.19.86.41.68.07-.07.13-.41.14-.9.02-.44.1-.99.18-1.24.08-.26.17-.74.21-1.1.1-.96.55-1.4 1.54-1.53l.45-.05-.25.15c-.14.09-.28.2-.32.24-.04.05-.08.61-.08 1.25 0 .87-.05 1.32-.2 1.82-.21.71-.83 1.81-1.29 2.27l-.28.29-.07-.39c-.07-.4-.25-.55-.45-.38-.06.05-.11.39-.11.8 0 .61-.03.72-.19.79-.3.14-.31.12-.31-.46 0-.37-.05-.57-.15-.65-.43-.31-.77.27-.59 1.02.09.36.08.44-.06.55-.36.27-.46.17-.42-.46.04-.51.01-.61-.17-.77-.27-.23-.55-.23-.82 0-.19.16-.21.26-.18.88.04.67.03.69-.19.72-.46.06-.5-.01-.34-.56.12-.44.12-.55 0-.75-.12-.23-.18-.25-.68-.25-.49 0-.56.03-.69.23-.14.21-.14.29.01.77.17.58.14.67-.32.67-.42 0-.52-.1-.4-.39.16-.34.16-1.02 0-1.18-.08-.09-.29-.14-.61-.14-.79 0-.93.36-.58 1.44.05.14-.23.21-.56.14-.22-.05-.23-.08-.13-.37.31-.96-.3-1.75-.93-1.21-.17.15-.2.26-.18.74.03.61-.08.74-.43.51-.14-.09-.15-.19-.06-.62.11-.55 0-.95-.27-1.03-.3-.1-.45.13-.45.7 0 .58-.01.6-.31.46-.16-.08-.19-.19-.19-.72 0-.72-.06-.9-.3-.9-.18 0-.3.22-.3.57 0 .32-.13.23-.58-.36-.95-1.22-1.22-2.05-1.22-3.75 0-.66-.04-1.24-.08-1.29-.04-.04-.18-.15-.32-.24l-.25-.15.45.05c.25.04.58.14.74.21z" style="fill:#fff;stroke:#000;stroke-width:.05;stroke-miterlimit:10"/>
      </g>
      <g id="text">
        <path d="M1.76 25.49H.99c-.04 0-.08-.02-.11-.05-.03-.03-.05-.07-.05-.11 0-.05.02-.09.05-.13.03-.03.07-.05.11-.05h3.58l1.26 12.09 1.62-12.09h3.58c.05 0 .1.02.13.05.04.03.05.07.05.11 0 .05-.02.09-.05.12-.04.03-.08.05-.13.05h-.86v19.17h.86c.03 0 .04.01.05.03.03.04.04.09.04.15 0 .05-.01.09-.03.11s-.04.04-.07.04H6.69c-.04 0-.07-.01-.1-.04s-.05-.07-.05-.12.02-.09.05-.12.06-.04.1-.04h.91V26.34L5.28 44.53c-.04.24-.07.37-.09.41s-.07.05-.12.05h-.85c-.05 0-.09-.02-.12-.05s-.05-.17-.08-.41l-1.9-18v16.72c0 .46.05.78.14.96.09.18.25.32.48.39l.59.05c.04.03.07.08.07.16 0 .07-.01.12-.03.14-.02.02-.08.03-.17.03H.87c-.04 0-.06-.01-.09-.04-.02-.03-.03-.06-.03-.11s.01-.08.03-.1c.02-.02.1-.06.23-.11.27-.11.46-.24.55-.41.13-.23.2-.55.2-.98V25.49zM19.58 32.83v4.86c0 2.8-.44 4.85-1.33 6.14-.62.9-1.38 1.34-2.31 1.34-.62 0-1.2-.22-1.73-.67s-.94-1.11-1.24-1.98c-.48-1.4-.73-2.95-.73-4.65v-5.7c0-2.65.44-4.62 1.33-5.91.62-.89 1.38-1.33 2.28-1.33.44 0 .84.1 1.21.3.37.2.7.49.99.87.29.38.55.89.78 1.52.23.63.4 1.28.49 1.96.18 1.16.26 2.24.26 3.25zm-4.55 10.19c0 .69.11 1.18.32 1.49.16.22.35.33.58.33.22 0 .41-.1.58-.3.17-.2.25-.48.25-.85v-16.9c0-.47-.11-.85-.33-1.13-.15-.2-.34-.3-.57-.3-.2 0-.38.1-.53.29-.2.26-.3.65-.3 1.15v16.22zM21.22 25.49h-.78c-.1-.05-.15-.11-.15-.17 0-.05.05-.11.15-.16h4.15c1.03 0 1.92.44 2.67 1.31.75.88 1.13 2.07 1.13 3.58 0 .87-.14 1.65-.43 2.32s-.72 1.24-1.29 1.67c-.34.26-.87.52-1.59.77.8.24 1.36.46 1.68.69.53.37.93.81 1.18 1.33.26.52.39 1.19.39 2.02v4.82c0 .22.04.37.11.46s.16.13.28.13c.18 0 .33-.11.47-.33.23-.35.37-.98.44-1.9.01-.16.03-.26.07-.32.04-.05.08-.08.12-.08.05 0 .1.03.13.09.04.07.07.2.07.39 0 .98-.23 1.73-.7 2.26-.47.53-1.06.8-1.77.8-.63 0-1.11-.16-1.43-.49s-.49-.79-.49-1.38v-6.97c0-.6-.15-1-.44-1.2-.17-.12-.58-.17-1.23-.17v9.69h.65c.07 0 .12.02.17.05.04.03.06.07.06.11 0 .04-.02.08-.06.11-.04.03-.09.05-.17.05h-4.15c-.05 0-.1-.01-.13-.04-.04-.03-.05-.07-.05-.12s.02-.09.05-.12.08-.04.13-.04h.78V25.49zm2.73.01v9.12h.64c.31 0 .55-.11.75-.32.19-.21.29-.52.29-.92v-6.84c0-.4-.07-.67-.21-.82s-.42-.22-.83-.22h-.64zM32.98 25.5h-.28c-.19 0-.36.06-.5.18-.21.18-.42.59-.62 1.22-.33 1.01-.6 2.22-.83 3.63-.23 1.41-.34 2.3-.34 2.68v.3c0 .07-.02.12-.05.16s-.07.06-.12.06c-.05 0-.09-.02-.12-.05-.04-.05-.07-.11-.07-.17v-8.36h8.56v8.35c0 .06-.02.11-.05.15s-.08.06-.13.06c-.04 0-.08-.02-.12-.06s-.05-.09-.05-.15v-.51c0-.5-.13-1.43-.38-2.79s-.54-2.51-.86-3.44c-.21-.6-.38-.96-.52-1.08s-.27-.18-.39-.18h-.42v19.16h1.03c.1.06.15.11.15.17s-.05.11-.14.17h-4.88c-.04 0-.08-.01-.1-.04-.03-.03-.04-.07-.04-.12s.01-.09.04-.12.06-.04.11-.04h1.15V25.5zM43.9 25.49h-.79c-.04 0-.08-.02-.11-.05-.03-.03-.04-.07-.04-.11 0-.05.01-.09.04-.13.03-.03.06-.05.11-.05h4.28c.04 0 .08.02.11.05.03.03.05.07.05.11 0 .05-.02.09-.05.12-.03.03-.07.05-.11.05h-.79v19.17h.79c.09.06.13.11.13.17 0 .06-.04.11-.13.17H43c-.1-.06-.15-.11-.15-.17s.05-.11.15-.17h.9V25.49zM50.08 43.84c-.3.21-.6.47-.92.78-.31.31-.5.47-.57.47-.03 0-.05-.01-.07-.04-.02-.03-.03-.08-.03-.17V36.6c0-.04.01-.06.03-.09.02-.02.05-.03.08-.03.05 0 .09.03.12.08.06.08.1.17.1.26v.57c0 1.1.17 2.35.51 3.76s.79 2.41 1.34 3.01c.27.3.59.45.95.45.41 0 .77-.2 1.08-.59.31-.39.46-.98.46-1.77 0-.76-.14-1.56-.42-2.4-.37-1.12-1.19-2.93-2.45-5.41-.79-1.55-1.29-2.67-1.51-3.36-.22-.69-.32-1.36-.32-2.01 0-1.29.3-2.3.91-3.03.61-.73 1.3-1.09 2.08-1.09.67 0 1.27.36 1.8 1.07.44-.24.86-.53 1.28-.88.14-.12.23-.18.28-.18.02 0 .04.01.05.03.02.04.03.1.03.18v7.16c0 .1-.02.18-.07.24-.03.04-.06.05-.1.05-.05 0-.09-.02-.12-.07s-.08-.36-.16-.95c-.36-2.73-.84-4.54-1.43-5.43-.35-.51-.75-.76-1.2-.76-.33 0-.62.15-.87.45-.25.3-.37.74-.37 1.32 0 1.05.6 2.76 1.79 5.15l1.16 2.33c.8 1.61 1.33 2.88 1.59 3.83.26.94.4 1.79.4 2.54 0 1.3-.32 2.32-.96 3.06s-1.39 1.11-2.25 1.11c-.92-.02-1.66-.46-2.22-1.36zM60.85 25.49h-.78c-.04 0-.08-.02-.11-.05-.03-.03-.05-.07-.05-.11 0-.05.02-.09.05-.13.03-.03.07-.05.11-.05h3.58l1.26 12.09 1.62-12.09h3.58c.05 0 .1.02.13.05.04.03.05.07.05.11 0 .05-.02.09-.05.12-.04.03-.08.05-.13.05h-.86v19.17h.86c.03 0 .04.01.05.03.03.04.04.09.04.15 0 .05-.01.09-.03.11s-.04.04-.07.04h-4.34c-.04 0-.07-.01-.1-.04s-.05-.07-.05-.12.02-.09.05-.12c.03-.03.06-.04.1-.04h.91V26.34l-2.32 18.18c-.04.24-.07.37-.09.41-.03.04-.07.05-.12.05h-.86c-.05 0-.09-.02-.12-.05s-.05-.17-.08-.41l-1.9-18v16.72c0 .46.05.78.14.96.09.18.25.32.48.39l.59.05c.04.03.07.08.07.16 0 .07-.01.12-.03.14-.02.02-.08.03-.17.03h-2.33c-.04 0-.06-.01-.08-.04-.02-.03-.03-.06-.03-.11s.01-.08.03-.1c.02-.02.1-.06.23-.11.27-.11.46-.24.55-.41.13-.23.2-.55.2-.98V25.49zM78.67 32.83v4.86c0 2.8-.44 4.85-1.33 6.14-.62.9-1.38 1.34-2.31 1.34-.62 0-1.2-.22-1.73-.67s-.94-1.11-1.24-1.98c-.48-1.4-.73-2.95-.73-4.65v-5.7c0-2.65.44-4.62 1.33-5.91.62-.89 1.38-1.33 2.28-1.33.44 0 .84.1 1.21.3.37.2.7.49.99.87.29.38.55.89.79 1.52.23.63.4 1.28.49 1.96.17 1.16.25 2.24.25 3.25zm-4.55 10.19c0 .69.11 1.18.32 1.49.16.22.35.33.58.33.22 0 .41-.1.58-.3.17-.2.25-.48.25-.85v-16.9c0-.47-.11-.85-.33-1.13-.15-.2-.34-.3-.57-.3-.2 0-.38.1-.53.29-.2.26-.3.65-.3 1.15v16.22zM80.31 25.49h-.78c-.1-.05-.14-.11-.14-.17 0-.05.05-.11.14-.16h4.15c1.03 0 1.92.44 2.67 1.31s1.13 2.07 1.13 3.58c0 .87-.14 1.65-.43 2.32s-.72 1.24-1.29 1.67c-.34.26-.87.52-1.59.77.8.24 1.36.46 1.68.69.53.37.93.81 1.18 1.33.26.52.39 1.19.39 2.02v4.82c0 .22.03.37.11.46.07.09.16.13.28.13.18 0 .33-.11.47-.33.23-.35.37-.98.43-1.9.01-.16.03-.26.07-.32.04-.05.08-.08.12-.08.05 0 .1.03.13.09.04.07.07.2.07.39 0 .98-.24 1.73-.7 2.26-.47.53-1.06.8-1.77.8-.63 0-1.11-.16-1.43-.49s-.49-.79-.49-1.38v-6.97c0-.6-.15-1-.44-1.2-.17-.12-.58-.17-1.23-.17v9.69h.65c.07 0 .12.02.17.05.04.03.06.07.06.11 0 .04-.02.08-.06.11-.04.03-.09.05-.17.05h-4.15c-.05 0-.1-.01-.13-.04-.04-.03-.05-.07-.05-.12s.02-.09.05-.12c.03-.03.08-.04.13-.04h.78V25.49zm2.73.01v9.12h.64c.3 0 .55-.11.75-.32.19-.21.29-.52.29-.92v-6.84c0-.4-.07-.67-.21-.82-.14-.15-.42-.22-.82-.22h-.65zM90.52 25.49h-.86c-.09-.06-.13-.11-.13-.16 0-.06.04-.12.13-.17h7.5v7.34c-.05.09-.1.13-.15.13-.05 0-.09-.01-.11-.04-.02-.03-.04-.16-.04-.38-.06-1.46-.29-2.81-.69-4.07-.4-1.25-.78-2.05-1.15-2.38-.19-.18-.52-.26-.98-.26h-.82v9.27c.5-.05.91-.32 1.23-.79.42-.64.63-1.63.63-2.95V30c0-.04.02-.08.05-.11.03-.03.07-.05.11-.05s.08.02.11.05.04.07.04.11v9.8c0 .04-.01.08-.04.11s-.06.05-.11.05-.08-.02-.11-.05c-.03-.03-.05-.07-.05-.11v-.95c0-1.3-.24-2.33-.71-3.1-.28-.44-.58-.66-.88-.66-.08 0-.14.03-.19.08-.05.06-.08.16-.08.29v9.19h.42c.36 0 .72-.13 1.07-.4.35-.27.68-.73.99-1.4.31-.66.54-1.39.71-2.17.27-1.27.41-2.25.41-2.97v-.87c.06-.1.12-.15.17-.15s.09.01.13.04c.03.03.05.06.05.11v8.15h-7.49c-.06 0-.11-.02-.14-.05-.04-.03-.05-.07-.05-.11 0-.05.02-.09.05-.12.03-.03.08-.04.14-.04h.84V25.49z"/>
      </g>
    </g>
  </switch>
</svg>
